<mxfile host="app.diagrams.net" agent="Mozilla/5.0 (Windows NT 10.0; Win64; x64) AppleWebKit/537.36 (KHTML, like Gecko) Chrome/129.0.0.0 Safari/537.36" version="24.7.14">
  <diagram name="Страница — 1" id="sp24z99Wg-VZAYEqCzw8">
    <mxGraphModel dx="3452" dy="2582" grid="1" gridSize="10" guides="1" tooltips="1" connect="1" arrows="1" fold="1" page="1" pageScale="1" pageWidth="827" pageHeight="1169" math="0" shadow="0">
      <root>
        <mxCell id="0" />
        <mxCell id="1" parent="0" />
        <mxCell id="LCVxl33K8oPJSDb7UhHi-10" value="&lt;font style=&quot;font-size: 18px;&quot;&gt;Source AWS Account&lt;/font&gt;" style="swimlane;whiteSpace=wrap;html=1;rounded=1;" vertex="1" parent="1">
          <mxGeometry x="-90" y="-640" width="690" height="660" as="geometry" />
        </mxCell>
        <mxCell id="LCVxl33K8oPJSDb7UhHi-14" value="&lt;font style=&quot;font-size: 14px;&quot;&gt;eu-central-1&lt;/font&gt;" style="points=[[0,0],[0.25,0],[0.5,0],[0.75,0],[1,0],[1,0.25],[1,0.5],[1,0.75],[1,1],[0.75,1],[0.5,1],[0.25,1],[0,1],[0,0.75],[0,0.5],[0,0.25]];outlineConnect=0;html=1;whiteSpace=wrap;fontSize=12;fontStyle=0;container=1;pointerEvents=0;collapsible=0;recursiveResize=0;shape=mxgraph.aws4.group;grIcon=mxgraph.aws4.group_region;strokeColor=#6c8ebf;fillColor=#dae8fc;verticalAlign=top;align=left;spacingLeft=30;dashed=1;" vertex="1" parent="LCVxl33K8oPJSDb7UhHi-10">
          <mxGeometry x="20" y="50" width="570" height="292" as="geometry" />
        </mxCell>
        <mxCell id="LCVxl33K8oPJSDb7UhHi-20" value="" style="group" vertex="1" connectable="0" parent="LCVxl33K8oPJSDb7UhHi-14">
          <mxGeometry x="10" y="40" width="190" height="230" as="geometry" />
        </mxCell>
        <mxCell id="LCVxl33K8oPJSDb7UhHi-18" value="" style="group" vertex="1" connectable="0" parent="LCVxl33K8oPJSDb7UhHi-20">
          <mxGeometry width="190" height="190" as="geometry" />
        </mxCell>
        <mxCell id="LCVxl33K8oPJSDb7UhHi-17" value="" style="rounded=1;whiteSpace=wrap;html=1;" vertex="1" parent="LCVxl33K8oPJSDb7UhHi-18">
          <mxGeometry width="190" height="190" as="geometry" />
        </mxCell>
        <mxCell id="LCVxl33K8oPJSDb7UhHi-15" value="Amazon&#xa;Aurora" style="sketch=0;outlineConnect=0;fontColor=#232F3E;gradientColor=none;strokeColor=#ffffff;fillColor=#232F3E;dashed=0;verticalLabelPosition=middle;verticalAlign=bottom;align=center;html=1;whiteSpace=wrap;fontSize=10;fontStyle=1;spacing=3;shape=mxgraph.aws4.productIcon;prIcon=mxgraph.aws4.aurora;" vertex="1" parent="LCVxl33K8oPJSDb7UhHi-18">
          <mxGeometry x="55" width="80" height="110" as="geometry" />
        </mxCell>
        <mxCell id="LCVxl33K8oPJSDb7UhHi-1" value="" style="outlineConnect=0;dashed=0;verticalLabelPosition=bottom;verticalAlign=top;align=center;html=1;shape=mxgraph.aws3.rds_db_instance;fillColor=#2E73B8;gradientColor=none;" vertex="1" parent="LCVxl33K8oPJSDb7UhHi-18">
          <mxGeometry x="25.5" y="110" width="49.5" height="66" as="geometry" />
        </mxCell>
        <mxCell id="LCVxl33K8oPJSDb7UhHi-2" value="" style="outlineConnect=0;dashed=0;verticalLabelPosition=bottom;verticalAlign=top;align=center;html=1;shape=mxgraph.aws3.rds_db_instance_read_replica;fillColor=#2E73B8;gradientColor=none;" vertex="1" parent="LCVxl33K8oPJSDb7UhHi-18">
          <mxGeometry x="115" y="110" width="49.5" height="66" as="geometry" />
        </mxCell>
        <mxCell id="LCVxl33K8oPJSDb7UhHi-19" value="&lt;font style=&quot;font-size: 16px;&quot;&gt;Source RDS Aurora cluster&lt;/font&gt;" style="text;html=1;align=center;verticalAlign=middle;whiteSpace=wrap;rounded=0;" vertex="1" parent="LCVxl33K8oPJSDb7UhHi-20">
          <mxGeometry x="5" y="200" width="180" height="30" as="geometry" />
        </mxCell>
        <mxCell id="LCVxl33K8oPJSDb7UhHi-21" value="" style="shape=flexArrow;endArrow=classic;html=1;rounded=0;exitX=1;exitY=0.5;exitDx=0;exitDy=0;entryX=0;entryY=0.5;entryDx=0;entryDy=0;" edge="1" parent="LCVxl33K8oPJSDb7UhHi-14" source="LCVxl33K8oPJSDb7UhHi-17" target="LCVxl33K8oPJSDb7UhHi-23">
          <mxGeometry width="50" height="50" relative="1" as="geometry">
            <mxPoint x="290" y="140" as="sourcePoint" />
            <mxPoint x="-210" y="80" as="targetPoint" />
          </mxGeometry>
        </mxCell>
        <mxCell id="LCVxl33K8oPJSDb7UhHi-24" value="&lt;font style=&quot;font-size: 15px;&quot;&gt;create_snapshot&lt;/font&gt;" style="edgeLabel;html=1;align=center;verticalAlign=middle;resizable=0;points=[];" vertex="1" connectable="0" parent="LCVxl33K8oPJSDb7UhHi-21">
          <mxGeometry x="-0.0935" y="3" relative="1" as="geometry">
            <mxPoint as="offset" />
          </mxGeometry>
        </mxCell>
        <mxCell id="LCVxl33K8oPJSDb7UhHi-23" value="&lt;font style=&quot;font-size: 14px;&quot;&gt;RDS CLUSTER SNAPSHOT&lt;br&gt;(AWS MANAGED &lt;br&gt;ENCRYPTION)&lt;/font&gt;" style="shape=hexagon;perimeter=hexagonPerimeter2;whiteSpace=wrap;html=1;fixedSize=1;fillColor=#ffcc99;strokeColor=#36393d;" vertex="1" parent="LCVxl33K8oPJSDb7UhHi-14">
          <mxGeometry x="380" y="88" width="160" height="94" as="geometry" />
        </mxCell>
        <mxCell id="LCVxl33K8oPJSDb7UhHi-12" value="&lt;font style=&quot;font-size: 14px;&quot;&gt;eu-west-1&lt;/font&gt;" style="points=[[0,0],[0.25,0],[0.5,0],[0.75,0],[1,0],[1,0.25],[1,0.5],[1,0.75],[1,1],[0.75,1],[0.5,1],[0.25,1],[0,1],[0,0.75],[0,0.5],[0,0.25]];outlineConnect=0;html=1;whiteSpace=wrap;fontSize=12;fontStyle=0;container=1;pointerEvents=0;collapsible=0;recursiveResize=0;shape=mxgraph.aws4.group;grIcon=mxgraph.aws4.group_region;strokeColor=#82b366;fillColor=#d5e8d4;verticalAlign=top;align=left;spacingLeft=30;dashed=1;" vertex="1" parent="LCVxl33K8oPJSDb7UhHi-10">
          <mxGeometry x="20" y="350" width="570" height="290" as="geometry" />
        </mxCell>
        <mxCell id="LCVxl33K8oPJSDb7UhHi-25" value="&lt;font style=&quot;font-size: 14px;&quot;&gt;RDS CLUSTER SNAPSHOT&lt;br&gt;(SOURCE KMS KEY&amp;nbsp;&lt;br&gt;ENCRYPTION)&lt;/font&gt;" style="shape=hexagon;perimeter=hexagonPerimeter2;whiteSpace=wrap;html=1;fixedSize=1;" vertex="1" parent="LCVxl33K8oPJSDb7UhHi-12">
          <mxGeometry x="25" y="110" width="160" height="94" as="geometry" />
        </mxCell>
        <mxCell id="LCVxl33K8oPJSDb7UhHi-26" value="" style="shape=flexArrow;endArrow=classic;html=1;rounded=0;exitX=0.5;exitY=1;exitDx=0;exitDy=0;entryX=0.625;entryY=0;entryDx=0;entryDy=0;" edge="1" parent="LCVxl33K8oPJSDb7UhHi-10" source="LCVxl33K8oPJSDb7UhHi-23" target="LCVxl33K8oPJSDb7UhHi-25">
          <mxGeometry width="50" height="50" relative="1" as="geometry">
            <mxPoint x="250" y="390" as="sourcePoint" />
            <mxPoint x="710" y="450" as="targetPoint" />
            <Array as="points">
              <mxPoint x="400" y="320" />
              <mxPoint x="300" y="400" />
              <mxPoint x="180" y="440" />
            </Array>
          </mxGeometry>
        </mxCell>
        <mxCell id="LCVxl33K8oPJSDb7UhHi-27" value="&lt;font style=&quot;font-size: 15px;&quot;&gt;Copy and re-encrypt RDS cluster snapshot with custom KMS key&lt;/font&gt;" style="edgeLabel;html=1;align=center;verticalAlign=middle;resizable=0;points=[];" vertex="1" connectable="0" parent="LCVxl33K8oPJSDb7UhHi-26">
          <mxGeometry x="0.224" relative="1" as="geometry">
            <mxPoint as="offset" />
          </mxGeometry>
        </mxCell>
        <mxCell id="LCVxl33K8oPJSDb7UhHi-31" value="&lt;font style=&quot;font-size: 18px;&quot;&gt;Target AWS Account&lt;/font&gt;" style="swimlane;whiteSpace=wrap;html=1;rounded=1;" vertex="1" parent="1">
          <mxGeometry x="750" y="-640" width="690" height="660" as="geometry" />
        </mxCell>
        <mxCell id="LCVxl33K8oPJSDb7UhHi-43" value="&lt;font style=&quot;font-size: 14px;&quot;&gt;eu-west-1&lt;/font&gt;" style="points=[[0,0],[0.25,0],[0.5,0],[0.75,0],[1,0],[1,0.25],[1,0.5],[1,0.75],[1,1],[0.75,1],[0.5,1],[0.25,1],[0,1],[0,0.75],[0,0.5],[0,0.25]];outlineConnect=0;html=1;whiteSpace=wrap;fontSize=12;fontStyle=0;container=1;pointerEvents=0;collapsible=0;recursiveResize=0;shape=mxgraph.aws4.group;grIcon=mxgraph.aws4.group_region;strokeColor=#82b366;fillColor=#d5e8d4;verticalAlign=top;align=left;spacingLeft=30;dashed=1;" vertex="1" parent="LCVxl33K8oPJSDb7UhHi-31">
          <mxGeometry x="20" y="60" width="570" height="580" as="geometry" />
        </mxCell>
        <mxCell id="LCVxl33K8oPJSDb7UhHi-44" value="&lt;span style=&quot;font-size: 14px;&quot;&gt;&lt;b&gt;SHARED &lt;/b&gt;RDS CLUSTER SNAPSHOT&lt;/span&gt;&lt;br style=&quot;font-size: 14px;&quot;&gt;&lt;span style=&quot;font-size: 14px;&quot;&gt;(SOURCE KMS KEY&amp;nbsp;&lt;/span&gt;&lt;br style=&quot;font-size: 14px;&quot;&gt;&lt;span style=&quot;font-size: 14px;&quot;&gt;ENCRYPTION)&lt;/span&gt;" style="shape=hexagon;perimeter=hexagonPerimeter2;whiteSpace=wrap;html=1;fixedSize=1;fillColor=#bac8d3;strokeColor=#23445d;" vertex="1" parent="LCVxl33K8oPJSDb7UhHi-43">
          <mxGeometry x="20" y="400" width="160" height="94" as="geometry" />
        </mxCell>
        <mxCell id="LCVxl33K8oPJSDb7UhHi-49" value="&lt;span style=&quot;font-size: 14px;&quot;&gt;RDS CLUSTER SNAPSHOT&lt;/span&gt;&lt;br style=&quot;font-size: 14px;&quot;&gt;&lt;span style=&quot;font-size: 14px;&quot;&gt;(SOURCE KMS KEY&amp;nbsp;&lt;/span&gt;&lt;br style=&quot;font-size: 14px;&quot;&gt;&lt;span style=&quot;font-size: 14px;&quot;&gt;ENCRYPTION)&lt;/span&gt;" style="shape=hexagon;perimeter=hexagonPerimeter2;whiteSpace=wrap;html=1;fixedSize=1;" vertex="1" parent="LCVxl33K8oPJSDb7UhHi-43">
          <mxGeometry x="20" y="80" width="160" height="94" as="geometry" />
        </mxCell>
        <mxCell id="LCVxl33K8oPJSDb7UhHi-50" value="" style="shape=flexArrow;endArrow=classic;html=1;rounded=0;exitX=0.5;exitY=0;exitDx=0;exitDy=0;entryX=0.5;entryY=1;entryDx=0;entryDy=0;" edge="1" parent="LCVxl33K8oPJSDb7UhHi-43" source="LCVxl33K8oPJSDb7UhHi-44" target="LCVxl33K8oPJSDb7UhHi-49">
          <mxGeometry width="50" height="50" relative="1" as="geometry">
            <mxPoint x="-130" y="320" as="sourcePoint" />
            <mxPoint x="-80" y="270" as="targetPoint" />
          </mxGeometry>
        </mxCell>
        <mxCell id="LCVxl33K8oPJSDb7UhHi-51" value="&lt;span style=&quot;font-size: 15px;&quot;&gt;Copy and re-encrypt RDS &lt;br&gt;cluster snapshot&lt;br&gt;&amp;nbsp;with Target KMS key&lt;/span&gt;" style="edgeLabel;html=1;align=center;verticalAlign=middle;resizable=0;points=[];" vertex="1" connectable="0" parent="LCVxl33K8oPJSDb7UhHi-50">
          <mxGeometry x="-0.118" relative="1" as="geometry">
            <mxPoint as="offset" />
          </mxGeometry>
        </mxCell>
        <mxCell id="LCVxl33K8oPJSDb7UhHi-52" value="DYNAMIC RDS AURORA CLUSTER PREPARATION JOB" style="shape=process;whiteSpace=wrap;html=1;backgroundOutline=1;fillColor=#647687;fontColor=#ffffff;strokeColor=#314354;" vertex="1" parent="LCVxl33K8oPJSDb7UhHi-43">
          <mxGeometry x="311" y="72" width="160" height="110" as="geometry" />
        </mxCell>
        <mxCell id="LCVxl33K8oPJSDb7UhHi-53" value="" style="shape=flexArrow;endArrow=classic;html=1;rounded=0;exitX=1;exitY=0.5;exitDx=0;exitDy=0;entryX=0;entryY=0.5;entryDx=0;entryDy=0;" edge="1" parent="LCVxl33K8oPJSDb7UhHi-43" source="LCVxl33K8oPJSDb7UhHi-49" target="LCVxl33K8oPJSDb7UhHi-52">
          <mxGeometry width="50" height="50" relative="1" as="geometry">
            <mxPoint x="220" y="-170" as="sourcePoint" />
            <mxPoint x="270" y="-220" as="targetPoint" />
          </mxGeometry>
        </mxCell>
        <mxCell id="LCVxl33K8oPJSDb7UhHi-56" value="" style="group" vertex="1" connectable="0" parent="LCVxl33K8oPJSDb7UhHi-43">
          <mxGeometry x="290" y="290" width="190" height="230" as="geometry" />
        </mxCell>
        <mxCell id="LCVxl33K8oPJSDb7UhHi-57" value="" style="group" vertex="1" connectable="0" parent="LCVxl33K8oPJSDb7UhHi-56">
          <mxGeometry width="190" height="190" as="geometry" />
        </mxCell>
        <mxCell id="LCVxl33K8oPJSDb7UhHi-58" value="" style="rounded=1;whiteSpace=wrap;html=1;" vertex="1" parent="LCVxl33K8oPJSDb7UhHi-57">
          <mxGeometry width="190" height="190" as="geometry" />
        </mxCell>
        <mxCell id="LCVxl33K8oPJSDb7UhHi-59" value="Amazon&#xa;Aurora" style="sketch=0;outlineConnect=0;fontColor=#232F3E;gradientColor=none;strokeColor=#ffffff;fillColor=#232F3E;dashed=0;verticalLabelPosition=middle;verticalAlign=bottom;align=center;html=1;whiteSpace=wrap;fontSize=10;fontStyle=1;spacing=3;shape=mxgraph.aws4.productIcon;prIcon=mxgraph.aws4.aurora;" vertex="1" parent="LCVxl33K8oPJSDb7UhHi-57">
          <mxGeometry x="55" width="80" height="110" as="geometry" />
        </mxCell>
        <mxCell id="LCVxl33K8oPJSDb7UhHi-60" value="" style="outlineConnect=0;dashed=0;verticalLabelPosition=bottom;verticalAlign=top;align=center;html=1;shape=mxgraph.aws3.rds_db_instance;fillColor=#2E73B8;gradientColor=none;" vertex="1" parent="LCVxl33K8oPJSDb7UhHi-57">
          <mxGeometry x="25.5" y="110" width="49.5" height="66" as="geometry" />
        </mxCell>
        <mxCell id="LCVxl33K8oPJSDb7UhHi-61" value="" style="outlineConnect=0;dashed=0;verticalLabelPosition=bottom;verticalAlign=top;align=center;html=1;shape=mxgraph.aws3.rds_db_instance_read_replica;fillColor=#2E73B8;gradientColor=none;" vertex="1" parent="LCVxl33K8oPJSDb7UhHi-57">
          <mxGeometry x="115" y="110" width="49.5" height="66" as="geometry" />
        </mxCell>
        <mxCell id="LCVxl33K8oPJSDb7UhHi-62" value="&lt;font style=&quot;font-size: 16px;&quot;&gt;Dynamic RDS Aurora cluster&lt;/font&gt;" style="text;html=1;align=center;verticalAlign=middle;whiteSpace=wrap;rounded=0;" vertex="1" parent="LCVxl33K8oPJSDb7UhHi-56">
          <mxGeometry x="5" y="200" width="180" height="30" as="geometry" />
        </mxCell>
        <mxCell id="LCVxl33K8oPJSDb7UhHi-63" value="" style="shape=flexArrow;endArrow=classic;html=1;rounded=0;exitX=0.5;exitY=1;exitDx=0;exitDy=0;" edge="1" parent="LCVxl33K8oPJSDb7UhHi-43" source="LCVxl33K8oPJSDb7UhHi-52" target="LCVxl33K8oPJSDb7UhHi-59">
          <mxGeometry width="50" height="50" relative="1" as="geometry">
            <mxPoint x="800" y="290" as="sourcePoint" />
            <mxPoint x="850" y="240" as="targetPoint" />
          </mxGeometry>
        </mxCell>
        <mxCell id="LCVxl33K8oPJSDb7UhHi-64" value="&lt;font style=&quot;font-size: 15px;&quot;&gt;CREATE&lt;/font&gt;" style="edgeLabel;html=1;align=center;verticalAlign=middle;resizable=0;points=[];" vertex="1" connectable="0" parent="LCVxl33K8oPJSDb7UhHi-63">
          <mxGeometry x="-0.2112" y="2" relative="1" as="geometry">
            <mxPoint y="-1" as="offset" />
          </mxGeometry>
        </mxCell>
        <mxCell id="LCVxl33K8oPJSDb7UhHi-47" value="" style="shape=flexArrow;endArrow=classic;html=1;rounded=0;exitX=1;exitY=0.5;exitDx=0;exitDy=0;entryX=0;entryY=0.5;entryDx=0;entryDy=0;" edge="1" parent="1" source="LCVxl33K8oPJSDb7UhHi-25" target="LCVxl33K8oPJSDb7UhHi-44">
          <mxGeometry width="50" height="50" relative="1" as="geometry">
            <mxPoint x="510" y="-110" as="sourcePoint" />
            <mxPoint x="560" y="-160" as="targetPoint" />
          </mxGeometry>
        </mxCell>
        <mxCell id="LCVxl33K8oPJSDb7UhHi-48" value="&lt;font style=&quot;font-size: 15px;&quot;&gt;SHARE RDS CLUSTER SNAPSHOT TO TARGET AWS ACCOUNT AND REGION&lt;/font&gt;" style="edgeLabel;html=1;align=center;verticalAlign=middle;resizable=0;points=[];" vertex="1" connectable="0" parent="LCVxl33K8oPJSDb7UhHi-47">
          <mxGeometry x="-0.0559" relative="1" as="geometry">
            <mxPoint x="-1" as="offset" />
          </mxGeometry>
        </mxCell>
        <mxCell id="LCVxl33K8oPJSDb7UhHi-55" value="" style="shape=flexArrow;endArrow=classic;startArrow=classic;html=1;rounded=0;exitX=1;exitY=0;exitDx=0;exitDy=0;entryX=0;entryY=0;entryDx=0;entryDy=0;" edge="1" parent="1" source="LCVxl33K8oPJSDb7UhHi-52" target="LCVxl33K8oPJSDb7UhHi-65">
          <mxGeometry width="100" height="100" relative="1" as="geometry">
            <mxPoint x="1440" y="-480" as="sourcePoint" />
            <mxPoint x="1667.8000000000002" y="-467.1999999999998" as="targetPoint" />
          </mxGeometry>
        </mxCell>
        <mxCell id="LCVxl33K8oPJSDb7UhHi-65" value="&lt;b&gt;&lt;font style=&quot;font-size: 18px;&quot;&gt;create_rds_cluster&lt;/font&gt;&lt;/b&gt;" style="swimlane;fontStyle=0;childLayout=stackLayout;horizontal=1;startSize=30;horizontalStack=0;resizeParent=1;resizeParentMax=0;resizeLast=0;collapsible=1;marginBottom=0;whiteSpace=wrap;html=1;" vertex="1" parent="1">
          <mxGeometry x="1640" y="-660" width="520" height="180" as="geometry" />
        </mxCell>
        <mxCell id="LCVxl33K8oPJSDb7UhHi-66" value="&lt;font style=&quot;font-size: 15px;&quot;&gt;Generate backend.tf, provider.tf, terraform.tfvars&amp;nbsp;&lt;/font&gt;" style="text;strokeColor=none;fillColor=none;align=left;verticalAlign=middle;spacingLeft=4;spacingRight=4;overflow=hidden;points=[[0,0.5],[1,0.5]];portConstraint=eastwest;rotatable=0;whiteSpace=wrap;html=1;" vertex="1" parent="LCVxl33K8oPJSDb7UhHi-65">
          <mxGeometry y="30" width="520" height="30" as="geometry" />
        </mxCell>
        <mxCell id="LCVxl33K8oPJSDb7UhHi-69" value="&lt;span style=&quot;font-size: 15px;&quot;&gt;Copy terraform files from template to new dynamic RDS folder&lt;/span&gt;" style="text;strokeColor=none;fillColor=none;align=left;verticalAlign=middle;spacingLeft=4;spacingRight=4;overflow=hidden;points=[[0,0.5],[1,0.5]];portConstraint=eastwest;rotatable=0;whiteSpace=wrap;html=1;" vertex="1" parent="LCVxl33K8oPJSDb7UhHi-65">
          <mxGeometry y="60" width="520" height="30" as="geometry" />
        </mxCell>
        <mxCell id="LCVxl33K8oPJSDb7UhHi-67" value="&lt;span style=&quot;font-size: 15px;&quot;&gt;Commit all new files to the directory of RDS cluster into current branch&lt;/span&gt;" style="text;strokeColor=none;fillColor=none;align=left;verticalAlign=middle;spacingLeft=4;spacingRight=4;overflow=hidden;points=[[0,0.5],[1,0.5]];portConstraint=eastwest;rotatable=0;whiteSpace=wrap;html=1;" vertex="1" parent="LCVxl33K8oPJSDb7UhHi-65">
          <mxGeometry y="90" width="520" height="30" as="geometry" />
        </mxCell>
        <mxCell id="LCVxl33K8oPJSDb7UhHi-68" value="&lt;span style=&quot;font-size: 15px;&quot;&gt;Configure Terraform&lt;/span&gt;" style="text;strokeColor=none;fillColor=none;align=left;verticalAlign=middle;spacingLeft=4;spacingRight=4;overflow=hidden;points=[[0,0.5],[1,0.5]];portConstraint=eastwest;rotatable=0;whiteSpace=wrap;html=1;" vertex="1" parent="LCVxl33K8oPJSDb7UhHi-65">
          <mxGeometry y="120" width="520" height="30" as="geometry" />
        </mxCell>
        <mxCell id="LCVxl33K8oPJSDb7UhHi-70" value="&lt;font style=&quot;font-size: 15px;&quot;&gt;Run terraform init and terraform apply -auro-approve in RDS cluster folder&lt;/font&gt;" style="text;strokeColor=none;fillColor=none;align=left;verticalAlign=middle;spacingLeft=4;spacingRight=4;overflow=hidden;points=[[0,0.5],[1,0.5]];portConstraint=eastwest;rotatable=0;whiteSpace=wrap;html=1;" vertex="1" parent="LCVxl33K8oPJSDb7UhHi-65">
          <mxGeometry y="150" width="520" height="30" as="geometry" />
        </mxCell>
        <mxCell id="LCVxl33K8oPJSDb7UhHi-72" value="Actor" style="shape=umlActor;verticalLabelPosition=bottom;verticalAlign=top;html=1;outlineConnect=0;" vertex="1" parent="1">
          <mxGeometry x="827" y="130" width="110" height="200" as="geometry" />
        </mxCell>
        <mxCell id="LCVxl33K8oPJSDb7UhHi-73" value="" style="shape=flexArrow;endArrow=classic;html=1;rounded=0;exitX=1;exitY=0.3333333333333333;exitDx=0;exitDy=0;exitPerimeter=0;endWidth=40;endSize=8.22;entryX=0;entryY=0.5;entryDx=0;entryDy=0;" edge="1" parent="1" source="LCVxl33K8oPJSDb7UhHi-72" target="LCVxl33K8oPJSDb7UhHi-74">
          <mxGeometry width="50" height="50" relative="1" as="geometry">
            <mxPoint x="1060" y="160" as="sourcePoint" />
            <mxPoint x="1170" y="130" as="targetPoint" />
          </mxGeometry>
        </mxCell>
        <mxCell id="LCVxl33K8oPJSDb7UhHi-76" value="&lt;b&gt;&lt;font style=&quot;font-size: 15px;&quot;&gt;By MANUAL approve&lt;/font&gt;&lt;/b&gt;" style="edgeLabel;html=1;align=center;verticalAlign=middle;resizable=0;points=[];" vertex="1" connectable="0" parent="LCVxl33K8oPJSDb7UhHi-73">
          <mxGeometry x="-0.258" y="4" relative="1" as="geometry">
            <mxPoint x="17" y="-3" as="offset" />
          </mxGeometry>
        </mxCell>
        <mxCell id="LCVxl33K8oPJSDb7UhHi-74" value="&lt;font style=&quot;font-size: 15px;&quot;&gt;&lt;b&gt;DESTROY RDS CLUSTER&amp;nbsp;&lt;br&gt;RDS SNAPSHOT&lt;br&gt;rm -rf Dynamic rds folder&lt;br&gt;commit all changes&lt;/b&gt;&lt;/font&gt;" style="ellipse;whiteSpace=wrap;html=1;aspect=fixed;" vertex="1" parent="1">
          <mxGeometry x="1170" y="70" width="230" height="230" as="geometry" />
        </mxCell>
        <mxCell id="LCVxl33K8oPJSDb7UhHi-75" value="" style="shape=flexArrow;endArrow=classic;html=1;rounded=0;exitX=0.5;exitY=0;exitDx=0;exitDy=0;entryX=1;entryY=1;entryDx=0;entryDy=0;" edge="1" parent="1" source="LCVxl33K8oPJSDb7UhHi-74" target="LCVxl33K8oPJSDb7UhHi-62">
          <mxGeometry width="50" height="50" relative="1" as="geometry">
            <mxPoint x="1070" y="70" as="sourcePoint" />
            <mxPoint x="1120" y="20" as="targetPoint" />
          </mxGeometry>
        </mxCell>
      </root>
    </mxGraphModel>
  </diagram>
</mxfile>
